<svg width="100" height="32" viewBox="0 0 100 32" fill="none" xmlns="http://www.w3.org/2000/svg">
<g clip-path="url(#clip0_334_11)">
<path d="M17.94 24H13.494L6.058 12.742V24H1.612V5.748H6.058L13.494 17.058V5.748H17.94V24ZM34.8388 16.512C34.8388 16.928 34.8128 17.3613 34.7608 17.812H24.6988C24.7681 18.7133 25.0541 19.4067 25.5568 19.892C26.0768 20.36 26.7094 20.594 27.4548 20.594C28.5641 20.594 29.3354 20.126 29.7688 19.19H34.5008C34.2581 20.1433 33.8161 21.0013 33.1748 21.764C32.5508 22.5267 31.7621 23.1247 30.8088 23.558C29.8554 23.9913 28.7894 24.208 27.6108 24.208C26.1894 24.208 24.9241 23.9047 23.8148 23.298C22.7054 22.6913 21.8388 21.8247 21.2148 20.698C20.5908 19.5713 20.2788 18.254 20.2788 16.746C20.2788 15.238 20.5821 13.9207 21.1888 12.794C21.8128 11.6673 22.6794 10.8007 23.7888 10.194C24.8981 9.58733 26.1721 9.284 27.6108 9.284C29.0148 9.284 30.2628 9.57867 31.3548 10.168C32.4468 10.7573 33.2961 11.598 33.9028 12.69C34.5268 13.782 34.8388 15.056 34.8388 16.512ZM30.2888 15.342C30.2888 14.5793 30.0288 13.9727 29.5088 13.522C28.9888 13.0713 28.3388 12.846 27.5588 12.846C26.8134 12.846 26.1808 13.0627 25.6608 13.496C25.1581 13.9293 24.8461 14.5447 24.7248 15.342H30.2888ZM45.7643 24L42.9823 19.97L40.6423 24H35.8323L40.6163 16.59L35.7023 9.492H40.6943L43.4763 13.496L45.8163 9.492H50.6263L45.7643 16.798L50.7563 24H45.7643ZM60.5554 20.23V24H58.2934C56.6814 24 55.4248 23.61 54.5234 22.83C53.6221 22.0327 53.1714 20.7413 53.1714 18.956V13.184H51.4034V9.492H53.1714V5.956H57.6174V9.492H60.5294V13.184H57.6174V19.008C57.6174 19.4413 57.7214 19.7533 57.9294 19.944C58.1374 20.1347 58.4841 20.23 58.9694 20.23H60.5554Z" fill="#115740"/>
<path d="M70.3119 13.184H67.9199V24H63.4739V13.184H61.8619V9.492H63.4739V9.076C63.4739 7.29067 63.9853 5.93867 65.0079 5.02C66.0306 4.084 67.5299 3.616 69.5059 3.616C69.8353 3.616 70.0779 3.62467 70.2339 3.642V7.412C69.3846 7.36 68.7866 7.48133 68.4399 7.776C68.0933 8.07067 67.9199 8.59933 67.9199 9.362V9.492H70.3119V13.184ZM87.2211 9.492L78.1211 30.89H73.3371L76.6651 23.506L70.7631 9.492H75.7291L79.0831 18.566L82.4111 9.492H87.2211ZM90.9088 24.208C90.1288 24.208 89.4875 23.9827 88.9848 23.532C88.4995 23.064 88.2568 22.492 88.2568 21.816C88.2568 21.1227 88.4995 20.542 88.9848 20.074C89.4875 19.606 90.1288 19.372 90.9088 19.372C91.6715 19.372 92.2955 19.606 92.7808 20.074C93.2835 20.542 93.5348 21.1227 93.5348 21.816C93.5348 22.492 93.2835 23.064 92.7808 23.532C92.2955 23.9827 91.6715 24.208 90.9088 24.208Z" fill="#F93822"/>
</g>
<defs>
<clipPath id="clip0_334_11">
<rect width="100" height="32" fill="white"/>
</clipPath>
</defs>
</svg>
